<svg width="403" height="139" viewBox="0 0 403 139" fill="none" xmlns="http://www.w3.org/2000/svg">
<path d="M37.872 31.664C35.28 32.24 33.12 35.552 31.392 41.6C29.76 47.648 28.896 54.176 28.8 61.184C28.704 68.096 29.52 74.432 31.248 80.192C33.072 85.952 35.712 88.832 39.168 88.832C39.936 88.832 40.896 88.544 42.048 87.968L37.872 79.76L46.944 70.256L48.672 71.984C49.344 65.84 49.44 59.696 48.96 53.552C48.576 47.312 47.328 41.984 45.216 37.568C43.104 33.152 40.656 31.184 37.872 31.664ZM58.608 122.528L52.128 109.568C48.48 110.912 44.736 111.776 40.896 112.16C36.96 112.352 33.12 111.728 29.376 110.288C25.632 108.944 22.128 106.88 18.864 104.096C15.696 101.312 12.864 98 10.368 94.16C7.872 90.32 5.856 85.856 4.32 80.768C2.88 75.68 2.064 70.304 1.872 64.64C1.68 59.648 1.968 54.56 2.736 49.376C3.6 44.096 4.992 38.912 6.912 33.824C8.928 28.64 11.376 24.08 14.256 20.144C17.136 16.208 20.736 13.04 25.056 10.64C29.472 8.144 34.32 6.944 39.6 7.04C44.304 7.13599 48.816 8.33599 53.136 10.64C57.552 12.944 61.488 16.256 64.944 20.576C68.496 24.896 71.232 30.56 73.152 37.568C75.168 44.576 76.08 52.448 75.888 61.184C75.888 73.28 73.296 84.08 68.112 93.584L77.616 103.952L58.608 122.528ZM85.5045 18.992L107.105 20.144C106.817 23.12 106.481 26.336 106.097 29.792C105.809 33.248 105.473 37.808 105.089 43.472C104.705 49.136 104.561 54.416 104.657 59.312C104.849 64.208 105.233 68.96 105.809 73.568C106.385 78.08 107.441 81.68 108.977 84.368C110.609 87.056 112.625 88.352 115.025 88.256C117.617 88.16 119.777 86.768 121.505 84.08C123.233 81.392 124.385 77.792 124.961 73.28C125.537 68.768 125.921 64.112 126.113 59.312C126.305 54.416 126.161 49.28 125.681 43.904C125.297 38.432 124.913 33.92 124.529 30.368C124.145 26.816 123.713 23.552 123.233 20.576L145.409 19.424C145.409 20.288 145.505 21.632 145.697 23.456C146.369 29.408 146.849 34.16 147.137 37.712C147.425 41.264 147.665 46.448 147.857 53.264C148.049 60.08 147.905 65.696 147.425 70.112C146.945 74.528 146.033 79.52 144.689 85.088C143.441 90.656 141.617 95.072 139.217 98.336C136.913 101.6 133.745 104.432 129.713 106.832C125.777 109.136 121.169 110.288 115.889 110.288C110.129 110.384 105.089 109.28 100.769 106.976C96.5445 104.576 93.1845 101.648 90.6885 98.192C88.2885 94.736 86.4165 90.08 85.0725 84.224C83.8245 78.368 83.0085 73.136 82.6245 68.528C82.2405 63.824 82.1925 57.92 82.4805 50.816C82.8645 43.712 83.2485 38.384 83.6325 34.832C84.0165 31.184 84.5925 26.384 85.3605 20.432C85.4565 19.76 85.5045 19.28 85.5045 18.992ZM156.215 20.144L205.319 17.84L206.183 39.44H179.831L178.535 54.848L195.527 55.568L195.095 73.712L178.535 73.28L178.247 88.688L207.767 89.408L208.055 110.72L155.783 109.136L156.215 20.144ZM214.997 20.144L264.101 17.84L264.965 39.44H238.613L237.317 54.848L254.309 55.568L253.877 73.712L237.317 73.28L237.029 88.688L266.549 89.408L266.837 110.72L214.564 109.136L214.997 20.144ZM271.618 19.856L331.09 18.992L331.522 44.192L301.138 87.968L330.226 86.672V110.288L271.33 110L270.466 89.84L309.058 39.872H271.618V19.856ZM355.005 72.128L332.973 19.424L359.037 18.992L366.813 54.128H367.965L375.885 18.992L402.669 19.856L377.469 72.56L378.621 110H354.573L355.005 72.128Z" fill="url(#paint0_linear_9_2)"/>
<path d="M37.872 31.664L36.1729 21.8094L35.9367 21.8501L35.7027 21.9021L37.872 31.664ZM31.392 41.6L21.7768 38.8528L21.7565 38.9236L21.7373 38.9948L31.392 41.6ZM28.8 61.184L38.799 61.3229L38.7991 61.321L28.8 61.184ZM31.248 80.192L21.6697 83.0655L21.6916 83.1384L21.7146 83.2109L31.248 80.192ZM42.048 87.968L46.5201 96.9123L55.5272 92.4088L50.9608 83.4334L42.048 87.968ZM37.872 79.76L30.6384 72.8552L25.7466 77.9801L28.9592 84.2946L37.872 79.76ZM46.944 70.256L54.0151 63.1849L46.7776 55.9475L39.7104 63.3512L46.944 70.256ZM48.672 71.984L41.6009 79.0551L56.3456 93.7997L58.6127 73.0713L48.672 71.984ZM48.96 53.552L38.9789 54.1662L38.984 54.2486L38.9904 54.3309L48.96 53.552ZM45.216 37.568L36.1947 41.8825L36.1947 41.8826L45.216 37.568ZM58.608 122.528L49.6637 127L55.7939 139.26L65.5973 129.68L58.608 122.528ZM52.128 109.568L61.0723 105.096L57.0695 97.0904L48.671 100.185L52.128 109.568ZM40.896 112.16L41.3832 122.148L41.6376 122.136L41.891 122.11L40.896 112.16ZM29.376 110.288L32.9658 100.955L32.8607 100.914L32.7546 100.876L29.376 110.288ZM18.864 104.096L12.2629 111.608L12.3183 111.656L12.3745 111.704L18.864 104.096ZM10.368 94.16L18.7524 88.7101L18.7524 88.7101L10.368 94.16ZM4.32 80.768L-5.30206 83.4912L-5.27839 83.5748L-5.25328 83.658L4.32 80.768ZM1.872 64.64L11.8663 64.3012L11.8655 64.2784L11.8646 64.2557L1.872 64.64ZM2.736 49.376L-7.13275 47.7611L-7.14495 47.8357L-7.15603 47.9105L2.736 49.376ZM6.912 33.824L-2.40805 30.1995L-2.42627 30.2464L-2.44402 30.2934L6.912 33.824ZM25.056 10.64L29.9124 19.3816L29.9446 19.3637L29.9766 19.3456L25.056 10.64ZM39.6 7.04L39.804 -2.95792L39.7929 -2.95815L39.7818 -2.95835L39.6 7.04ZM53.136 10.64L48.4301 19.4635L48.4701 19.4849L48.5103 19.5058L53.136 10.64ZM64.944 20.576L57.1353 26.8229L57.1772 26.8753L57.2197 26.927L64.944 20.576ZM73.152 37.568L63.5074 40.2103L63.5242 40.2716L63.5417 40.3326L73.152 37.568ZM75.888 61.184L65.8904 60.9643L65.888 61.0741V61.184H75.888ZM68.112 93.584L59.333 88.7955L55.9098 95.0714L60.7405 100.341L68.112 93.584ZM77.616 103.952L84.6053 111.104L91.5322 104.334L84.9875 97.1948L77.616 103.952ZM35.7027 21.9021C30.843 22.982 27.7498 26.3299 25.9319 29.1173C24.0808 31.9556 22.7737 35.3635 21.7768 38.8528L41.0072 44.3472C41.3576 43.121 41.6957 42.1552 42.004 41.4131C42.3164 40.6608 42.558 40.236 42.6841 40.0427C43.0262 39.5181 42.309 40.9219 40.0413 41.4259L35.7027 21.9021ZM21.7373 38.9948C19.8641 45.9367 18.907 53.3024 18.8009 61.047L38.7991 61.321C38.885 55.0496 39.6559 49.3592 41.0467 44.2052L21.7373 38.9948ZM18.801 61.0451C18.6929 68.8275 19.6087 76.1952 21.6697 83.0655L40.8263 77.3185C39.4313 72.6688 38.7151 67.3645 38.799 61.3229L18.801 61.0451ZM21.7146 83.2109C23.7478 89.6317 28.5565 98.832 39.168 98.832V78.832C39.7428 78.832 40.3928 78.9631 41.0007 79.2503C41.5811 79.5245 41.8895 79.8296 41.9675 79.9148C42.0303 79.9832 41.8997 79.8587 41.6533 79.3818C41.4095 78.9099 41.1053 78.1959 40.7814 77.1731L21.7146 83.2109ZM39.168 98.832C42.2018 98.832 44.8021 97.7713 46.5201 96.9123L37.5759 79.0237C37.3766 79.1233 37.391 79.0976 37.5905 79.0377C37.7755 78.9823 38.3344 78.832 39.168 78.832V98.832ZM50.9608 83.4334L46.7848 75.2254L28.9592 84.2946L33.1352 92.5026L50.9608 83.4334ZM45.1056 86.6648L54.1776 77.1608L39.7104 63.3512L30.6384 72.8552L45.1056 86.6648ZM39.8729 77.3271L41.6009 79.0551L55.7431 64.9129L54.0151 63.1849L39.8729 77.3271ZM58.6127 73.0713C59.3523 66.3093 59.4583 59.5405 58.9296 52.7731L38.9904 54.3309C39.4217 59.8515 39.3357 65.3707 38.7313 70.8967L58.6127 73.0713ZM58.9411 52.9378C58.4991 45.7549 57.0347 39.1024 54.2373 33.2534L36.1947 41.8826C37.6213 44.8656 38.6529 48.8691 38.9789 54.1662L58.9411 52.9378ZM54.2373 33.2534C52.8596 30.3728 50.9243 27.2876 48.0616 24.9862C44.8809 22.4292 40.7278 21.0241 36.1729 21.8094L39.5711 41.5186C38.8487 41.6431 38.0056 41.6217 37.1614 41.3816C36.3447 41.1493 35.8011 40.7914 35.5304 40.5738C35.2802 40.3726 35.2666 40.2962 35.4317 40.5274C35.5933 40.7537 35.8586 41.1799 36.1947 41.8825L54.2373 33.2534ZM67.5523 118.056L61.0723 105.096L43.1837 114.04L49.6637 127L67.5523 118.056ZM48.671 100.185C45.8104 101.238 42.8934 101.91 39.901 102.21L41.891 122.11C46.5786 121.642 51.1496 120.586 55.5851 118.951L48.671 100.185ZM40.4088 102.172C37.8879 102.295 35.4351 101.904 32.9658 100.955L25.7862 119.621C30.8049 121.552 36.0321 122.409 41.3832 122.148L40.4088 102.172ZM32.7546 100.876C30.2344 99.9713 27.7705 98.5493 25.3535 96.4877L12.3745 111.704C16.4855 115.211 21.0296 117.917 25.9974 119.7L32.7546 100.876ZM25.4651 96.5844C23.039 94.4523 20.7933 91.85 18.7524 88.7101L1.98356 99.6099C4.93466 104.15 8.35297 108.172 12.2629 111.608L25.4651 96.5844ZM18.7524 88.7101C16.8466 85.778 15.1987 82.2023 13.8933 77.878L-5.25328 83.658C-3.48675 89.5097 -1.10256 94.862 1.98356 99.6099L18.7524 88.7101ZM13.9421 78.0448C12.7371 73.7871 12.0329 69.2158 11.8663 64.3012L-8.12226 64.9788C-7.90485 71.3922 -6.97706 77.5729 -5.30206 83.4912L13.9421 78.0448ZM11.8646 64.2557C11.6975 59.9115 11.9463 55.4432 12.628 50.8415L-7.15603 47.9105C-8.01031 53.6768 -8.33753 59.3845 -8.12061 65.0243L11.8646 64.2557ZM12.6047 50.9909C13.36 46.3756 14.5781 41.8328 16.268 37.3546L-2.44402 30.2934C-4.59412 35.9912 -6.15998 41.8164 -7.13275 47.7611L12.6047 50.9909ZM16.232 37.4485C17.9758 32.9644 20.0265 29.1922 22.3263 26.0491L6.1857 14.2389C2.72553 18.9678 -0.119833 24.3156 -2.40805 30.1995L16.232 37.4485ZM22.3263 26.0491C24.341 23.2957 26.8388 21.0891 29.9124 19.3816L20.1996 1.89842C14.6332 4.99087 9.93099 9.12033 6.1857 14.2389L22.3263 26.0491ZM29.9766 19.3456C32.7724 17.7654 35.8473 16.9734 39.4182 17.0383L39.7818 -2.95835C32.7927 -3.08543 26.1716 -1.4774 20.1354 1.93436L29.9766 19.3456ZM39.396 17.0379C42.4633 17.1005 45.4394 17.8685 48.4301 19.4635L57.8419 1.81646C52.1926 -1.19648 46.1447 -2.82852 39.804 -2.95792L39.396 17.0379ZM48.5103 19.5058C51.565 21.0996 54.4505 23.4669 57.1353 26.8229L72.7527 14.329C68.5255 9.04511 63.539 4.78839 57.7617 1.77415L48.5103 19.5058ZM57.2197 26.927C59.6529 29.8862 61.8528 34.1709 63.5074 40.2103L82.7966 34.9256C80.6112 26.9491 77.3391 19.9057 72.6683 14.2249L57.2197 26.927ZM63.5417 40.3326C65.23 46.2012 66.0645 53.0435 65.8904 60.9643L85.8856 61.4037C86.0955 51.8525 85.106 42.9508 82.7623 34.8034L63.5417 40.3326ZM65.888 61.184C65.888 71.8066 63.6253 80.9263 59.333 88.7955L76.891 98.3725C82.9667 87.2337 85.888 74.7534 85.888 61.184H65.888ZM60.7405 100.341L70.2445 110.709L84.9875 97.1948L75.4835 86.8268L60.7405 100.341ZM70.6267 96.8001L51.6187 115.376L65.5973 129.68L84.6053 111.104L70.6267 96.8001ZM85.5045 18.992L86.0371 9.00619L75.5045 8.44445V18.992H85.5045ZM107.105 20.144L117.058 21.1072L118.064 10.7143L107.637 10.1582L107.105 20.144ZM106.097 29.792L96.1577 28.6877L96.1425 28.8244L96.131 28.9615L106.097 29.792ZM105.089 43.472L95.1114 42.7956L95.1114 42.7956L105.089 43.472ZM104.657 59.312L94.6584 59.508L94.6603 59.606L94.6642 59.7038L104.657 59.312ZM105.809 73.568L95.8857 74.8083L95.8873 74.8213L95.889 74.8343L105.809 73.568ZM108.977 84.368L100.294 89.3294L100.36 89.4445L100.429 89.5578L108.977 84.368ZM115.025 88.256L114.654 78.2629L114.64 78.2634L114.625 78.264L115.025 88.256ZM124.961 73.28L115.041 72.0137L115.041 72.0137L124.961 73.28ZM126.113 59.312L136.105 59.7117L136.105 59.7039L126.113 59.312ZM125.681 43.904L115.705 44.604L115.712 44.6987L115.72 44.7933L125.681 43.904ZM123.233 20.576L122.714 10.5895L111.586 11.1675L113.36 22.1683L123.233 20.576ZM145.409 19.424H155.409V8.89104L144.89 9.43746L145.409 19.424ZM145.697 23.456L135.751 24.5028L135.755 24.5404L135.76 24.5779L145.697 23.456ZM147.137 37.712L137.169 38.5202L137.169 38.5202L147.137 37.712ZM147.857 53.264L137.86 53.5456L137.86 53.5456L147.857 53.264ZM144.689 85.088L134.968 82.7416L134.948 82.8211L134.931 82.9009L144.689 85.088ZM139.217 98.336L131.16 92.4121L131.103 92.4901L131.047 92.5692L139.217 98.336ZM129.713 106.832L134.764 115.462L134.796 115.444L134.827 115.425L129.713 106.832ZM115.889 110.288V100.288H115.805L115.722 100.289L115.889 110.288ZM100.769 106.976L95.8284 115.671L95.9447 115.737L96.0626 115.8L100.769 106.976ZM90.6885 98.192L82.4748 103.896L82.5276 103.972L82.5817 104.047L90.6885 98.192ZM85.0725 84.224L75.2921 86.3083L75.3084 86.3848L75.3259 86.4609L85.0725 84.224ZM82.6245 68.528L72.6577 69.3416L72.6583 69.35L72.659 69.3585L82.6245 68.528ZM82.4805 50.816L72.4951 50.2762L72.4914 50.3436L72.4887 50.4109L82.4805 50.816ZM83.6325 34.832L93.5746 35.9068L93.5761 35.8928L93.5776 35.8788L83.6325 34.832ZM85.3605 20.432L75.461 19.0178L75.4514 19.085L75.4427 19.1523L85.3605 20.432ZM84.9719 28.9778L106.572 30.1298L107.637 10.1582L86.0371 9.00619L84.9719 28.9778ZM97.151 19.1808C96.8682 22.1029 96.5373 25.2713 96.1577 28.6877L116.035 30.8963C116.424 27.4007 116.765 24.1371 117.058 21.1072L97.151 19.1808ZM96.131 28.9615C95.837 32.4907 95.497 37.108 95.1114 42.7956L115.066 44.1484C115.448 38.508 115.78 34.0053 116.062 30.6224L96.131 28.9615ZM95.1114 42.7956C94.7107 48.7055 94.5559 54.2796 94.6584 59.508L114.655 59.116C114.565 54.5523 114.698 49.5665 115.066 44.1484L95.1114 42.7956ZM94.6642 59.7038C94.8667 64.8681 95.2726 69.9037 95.8857 74.8083L115.731 72.3276C115.192 68.0163 114.83 63.5479 114.649 58.9201L94.6642 59.7038ZM95.889 74.8343C96.56 80.0902 97.8772 85.0998 100.294 89.3294L117.659 79.4066C117.004 78.2602 116.209 76.0697 115.728 72.3017L95.889 74.8343ZM100.429 89.5578C103.274 94.2441 108.255 98.5348 115.424 98.248L114.625 78.264C114.993 78.2493 115.439 78.2865 115.919 78.4169C116.399 78.5474 116.805 78.7419 117.12 78.9442C117.724 79.3327 117.788 79.6126 117.524 79.1782L100.429 89.5578ZM115.395 98.2491C122.028 98.0035 126.883 94.2062 129.916 89.4876L113.093 78.6724C112.818 79.0993 112.795 78.9767 113.171 78.7343C113.362 78.6115 113.609 78.4888 113.899 78.3979C114.189 78.3072 114.451 78.2704 114.654 78.2629L115.395 98.2491ZM129.916 89.4876C132.715 85.1345 134.19 79.9522 134.88 74.5463L115.041 72.0137C114.579 75.6318 113.75 77.6495 113.093 78.6724L129.916 89.4876ZM134.88 74.5463C135.495 69.7311 135.902 64.7854 136.105 59.7117L116.12 58.9123C115.939 63.4386 115.578 67.8049 115.041 72.0137L134.88 74.5463ZM136.105 59.7039C136.315 54.3401 136.155 48.7743 135.641 43.0147L115.72 44.7933C116.166 49.7857 116.294 54.4919 116.12 58.9201L136.105 59.7039ZM135.656 43.204C135.267 37.6653 134.873 33.017 134.471 29.2932L114.586 31.4428C114.952 34.823 115.326 39.1987 115.705 44.604L135.656 43.204ZM134.471 29.2932C134.071 25.5987 133.617 22.1594 133.105 18.9837L113.36 22.1683C113.808 24.9445 114.218 28.0333 114.586 31.4428L134.471 29.2932ZM123.751 30.5625L145.927 29.4105L144.89 9.43746L122.714 10.5895L123.751 30.5625ZM135.409 19.424C135.409 20.8443 135.554 22.6267 135.751 24.5028L155.642 22.4091C155.455 20.6373 155.409 19.7317 155.409 19.424H135.409ZM135.76 24.5779C136.427 30.4853 136.893 35.1193 137.169 38.5202L157.104 36.9038C156.804 33.2007 156.31 28.3307 155.633 22.3341L135.76 24.5779ZM137.169 38.5202C137.435 41.8042 137.67 46.7778 137.86 53.5456L157.853 52.9824C157.659 46.1182 157.414 40.7238 157.104 36.9038L137.169 38.5202ZM137.86 53.5456C138.046 60.1198 137.895 65.239 137.483 69.0314L157.366 71.1926C157.914 66.153 158.051 60.0402 157.853 52.9824L137.86 53.5456ZM137.483 69.0314C137.06 72.9199 136.238 77.478 134.968 82.7416L154.409 87.4344C155.827 81.562 156.829 76.1361 157.366 71.1926L137.483 69.0314ZM134.931 82.9009C133.87 87.6317 132.478 90.6197 131.16 92.4121L147.273 104.26C150.755 99.5243 153.011 93.6803 154.446 87.2751L134.931 82.9009ZM131.047 92.5692C129.68 94.5049 127.632 96.4327 124.598 98.2391L134.827 115.425C139.857 112.431 144.145 108.695 147.386 104.103L131.047 92.5692ZM124.661 98.2019C122.485 99.4756 119.677 100.288 115.889 100.288V120.288C122.66 120.288 129.068 118.796 134.764 115.462L124.661 98.2019ZM115.722 100.289C111.358 100.362 108.051 99.5269 105.474 98.1525L96.0626 115.8C102.126 119.033 108.899 120.406 116.055 120.287L115.722 100.289ZM105.709 98.2814C102.558 96.4911 100.342 94.4785 98.7953 92.3371L82.5817 104.047C86.0272 108.818 90.5314 112.661 95.8284 115.671L105.709 98.2814ZM98.9022 92.488C97.4697 90.4253 95.9903 87.09 94.8191 81.9871L75.3259 86.4609C76.8427 93.07 79.1073 99.0467 82.4748 103.896L98.9022 92.488ZM94.8529 82.1397C93.6688 76.5838 92.9304 71.7824 92.59 67.6975L72.659 69.3585C73.0866 74.4896 73.9802 80.1522 75.2921 86.3083L94.8529 82.1397ZM92.5913 67.7144C92.2525 63.5634 92.1934 58.1 92.4723 51.2211L72.4887 50.4109C72.1916 57.74 72.2285 64.0846 72.6577 69.3416L92.5913 67.7144ZM92.4659 51.3558C92.8477 44.2923 93.2204 39.1824 93.5746 35.9068L73.6904 33.7572C73.2766 37.5856 72.8813 43.1317 72.4951 50.2762L92.4659 51.3558ZM93.5776 35.8788C93.9499 32.3416 94.5149 27.6281 95.2783 21.7117L75.4427 19.1523C74.6701 25.1399 74.0831 30.0264 73.6874 33.7851L93.5776 35.8788ZM95.26 21.8462C95.3577 21.1626 95.5045 20.0595 95.5045 18.992H75.5045C75.5045 18.9409 75.505 18.8953 75.5058 18.856C75.5065 18.8166 75.5076 18.7818 75.5086 18.7521C75.5107 18.6935 75.5132 18.6487 75.515 18.6202C75.5168 18.5913 75.5183 18.5729 75.5188 18.5665C75.5193 18.5599 75.5192 18.5618 75.5181 18.573C75.517 18.584 75.5151 18.6021 75.5122 18.6279C75.5093 18.6536 75.5055 18.6854 75.5007 18.7236C75.4911 18.8009 75.4781 18.8983 75.461 19.0178L95.26 21.8462ZM156.215 20.144L155.747 10.155L146.261 10.6L146.215 20.0955L156.215 20.144ZM205.319 17.84L215.311 17.4403L214.909 7.37904L204.851 7.85098L205.319 17.84ZM206.183 39.44V49.44H216.591L216.175 39.0403L206.183 39.44ZM179.831 39.44V29.44H170.637L169.866 38.6018L179.831 39.44ZM178.535 54.848L168.57 54.0098L167.697 64.3977L178.112 64.839L178.535 54.848ZM195.527 55.568L205.524 55.806L205.758 45.9925L195.951 45.577L195.527 55.568ZM195.095 73.712L194.834 83.7086L204.854 83.97L205.092 73.95L195.095 73.712ZM178.535 73.28L178.796 63.2834L168.725 63.0207L168.537 73.0931L178.535 73.28ZM178.247 88.688L168.249 88.5011L168.063 98.4426L178.003 98.685L178.247 88.688ZM207.767 89.408L217.766 89.2729L217.636 79.6457L208.011 79.411L207.767 89.408ZM208.055 110.72L207.752 120.715L218.196 121.032L218.054 110.585L208.055 110.72ZM155.783 109.136L145.783 109.087L145.736 118.836L155.48 119.131L155.783 109.136ZM156.684 30.133L205.788 27.829L204.851 7.85098L155.747 10.155L156.684 30.133ZM195.327 18.2397L196.191 39.8397L216.175 39.0403L215.311 17.4403L195.327 18.2397ZM206.183 29.44H179.831V49.44H206.183V29.44ZM169.866 38.6018L168.57 54.0098L188.5 55.6862L189.796 40.2782L169.866 38.6018ZM178.112 64.839L195.104 65.559L195.951 45.577L178.959 44.857L178.112 64.839ZM185.53 55.33L185.098 73.474L205.092 73.95L205.524 55.806L185.53 55.33ZM195.356 63.7154L178.796 63.2834L178.274 83.2766L194.834 83.7086L195.356 63.7154ZM168.537 73.0931L168.249 88.5011L188.246 88.8749L188.534 73.4669L168.537 73.0931ZM178.003 98.685L207.523 99.405L208.011 79.411L178.491 78.691L178.003 98.685ZM197.768 89.5431L198.056 110.855L218.054 110.585L217.766 89.2729L197.768 89.5431ZM208.358 100.725L156.086 99.1406L155.48 119.131L207.752 120.715L208.358 100.725ZM165.783 109.185L166.215 20.1925L146.215 20.0955L145.783 109.087L165.783 109.185ZM214.997 20.144L214.528 10.155L205.043 10.6L204.997 20.0955L214.997 20.144ZM264.101 17.84L274.093 17.4403L273.69 7.37904L263.632 7.85098L264.101 17.84ZM264.965 39.44V49.44H275.372L274.957 39.0403L264.965 39.44ZM238.613 39.44V29.44H229.418L228.648 38.6018L238.613 39.44ZM237.317 54.848L227.352 54.0098L226.478 64.3977L236.893 64.839L237.317 54.848ZM254.309 55.568L264.306 55.806L264.539 45.9925L254.732 45.577L254.309 55.568ZM253.877 73.712L253.616 83.7086L263.635 83.97L263.874 73.95L253.877 73.712ZM237.317 73.28L237.577 63.2834L227.507 63.0207L227.318 73.0931L237.317 73.28ZM237.029 88.688L227.03 88.5011L226.844 98.4426L236.785 98.685L237.029 88.688ZM266.549 89.408L276.548 89.2729L276.417 79.6457L266.792 79.411L266.549 89.408ZM266.837 110.72L266.534 120.715L276.977 121.032L276.836 110.585L266.837 110.72ZM214.564 109.136L204.565 109.087L204.517 118.836L214.262 119.131L214.564 109.136ZM215.465 30.133L264.569 27.829L263.632 7.85098L214.528 10.155L215.465 30.133ZM254.108 18.2397L254.972 39.8397L274.957 39.0403L274.093 17.4403L254.108 18.2397ZM264.965 29.44H238.613V49.44H264.965V29.44ZM228.648 38.6018L227.352 54.0098L247.281 55.6862L248.577 40.2782L228.648 38.6018ZM236.893 64.839L253.885 65.559L254.732 45.577L237.74 44.857L236.893 64.839ZM244.311 55.33L243.879 73.474L263.874 73.95L264.306 55.806L244.311 55.33ZM254.137 63.7154L237.577 63.2834L237.056 83.2766L253.616 83.7086L254.137 63.7154ZM227.318 73.0931L227.03 88.5011L247.027 88.8749L247.315 73.4669L227.318 73.0931ZM236.785 98.685L266.305 99.405L266.792 79.411L237.272 78.691L236.785 98.685ZM256.549 89.5431L256.837 110.855L276.836 110.585L276.548 89.2729L256.549 89.5431ZM267.139 100.725L214.867 99.1406L214.262 119.131L266.534 120.715L267.139 100.725ZM224.564 109.185L224.996 20.1925L204.997 20.0955L204.565 109.087L224.564 109.185ZM271.618 19.856L271.472 9.85705L261.618 10.0002V19.856H271.618ZM331.09 18.992L341.088 18.8206L340.917 8.84817L330.944 8.99305L331.09 18.992ZM331.522 44.192L339.737 49.8939L341.576 47.2448L341.52 44.0206L331.522 44.192ZM301.138 87.968L292.923 82.2661L281.407 98.857L301.583 97.9581L301.138 87.968ZM330.226 86.672H340.226V76.2165L329.781 76.6819L330.226 86.672ZM330.226 110.288L330.177 120.288L340.226 120.337V110.288H330.226ZM271.33 110L261.339 110.428L261.747 119.953L271.281 120L271.33 110ZM270.466 89.84L262.551 83.7275L260.319 86.6186L260.475 90.2682L270.466 89.84ZM309.058 39.872L316.972 45.9845L329.416 29.872H309.058V39.872ZM271.618 39.872H261.618V49.872H271.618V39.872ZM271.763 29.8549L331.235 28.9909L330.944 8.99305L271.472 9.85705L271.763 29.8549ZM321.091 19.1634L321.523 44.3634L341.52 44.0206L341.088 18.8206L321.091 19.1634ZM323.307 38.4901L292.923 82.2661L309.353 93.6699L339.737 49.8939L323.307 38.4901ZM301.583 97.9581L330.671 96.6621L329.781 76.6819L300.693 77.9779L301.583 97.9581ZM320.226 86.672V110.288H340.226V86.672H320.226ZM330.275 100.288L271.379 100L271.281 120L330.177 120.288L330.275 100.288ZM281.321 109.572L280.457 89.4118L260.475 90.2682L261.339 110.428L281.321 109.572ZM278.38 95.9525L316.972 45.9845L301.143 33.7595L262.551 83.7275L278.38 95.9525ZM309.058 29.872H271.618V49.872H309.058V29.872ZM281.618 39.872V19.856H261.618V39.872H281.618ZM355.005 72.128L365.004 72.2421L365.028 70.1767L364.231 68.2711L355.005 72.128ZM332.973 19.424L332.807 9.42537L318.057 9.66986L323.747 23.2809L332.973 19.424ZM359.037 18.992L368.801 16.8312L367.036 8.85804L358.871 8.99337L359.037 18.992ZM366.813 54.128L357.049 56.2888L358.784 64.128H366.813V54.128ZM367.965 54.128V64.128H375.962L377.72 56.3269L367.965 54.128ZM375.885 18.992L376.207 8.99719L367.947 8.73073L366.13 16.7931L375.885 18.992ZM402.669 19.856L411.691 24.1697L418.296 10.3549L402.991 9.86119L402.669 19.856ZM377.469 72.56L368.447 68.2463L367.399 70.4386L367.474 72.8675L377.469 72.56ZM378.621 110V120H388.933L388.616 109.692L378.621 110ZM354.573 110L344.574 109.886L344.458 120H354.573V110ZM364.231 68.2711L342.199 15.5671L323.747 23.2809L345.779 75.9849L364.231 68.2711ZM333.139 29.4226L359.203 28.9906L358.871 8.99337L332.807 9.42537L333.139 29.4226ZM349.273 21.1528L357.049 56.2888L376.577 51.9672L368.801 16.8312L349.273 21.1528ZM366.813 64.128H367.965V44.128H366.813V64.128ZM377.72 56.3269L385.64 21.1909L366.13 16.7931L358.21 51.9291L377.72 56.3269ZM375.563 28.9868L402.347 29.8508L402.991 9.86119L376.207 8.99719L375.563 28.9868ZM393.647 15.5423L368.447 68.2463L386.491 76.8737L411.691 24.1697L393.647 15.5423ZM367.474 72.8675L368.626 110.308L388.616 109.692L387.464 72.2525L367.474 72.8675ZM378.621 100H354.573V120H378.621V100ZM364.572 110.114L365.004 72.2421L345.006 72.0139L344.574 109.886L364.572 110.114Z" fill="#F2F2F2"/>
<path d="M37.872 31.664C35.28 32.24 33.12 35.552 31.392 41.6C29.76 47.648 28.896 54.176 28.8 61.184C28.704 68.096 29.52 74.432 31.248 80.192C33.072 85.952 35.712 88.832 39.168 88.832C39.936 88.832 40.896 88.544 42.048 87.968L37.872 79.76L46.944 70.256L48.672 71.984C49.344 65.84 49.44 59.696 48.96 53.552C48.576 47.312 47.328 41.984 45.216 37.568C43.104 33.152 40.656 31.184 37.872 31.664ZM58.608 122.528L52.128 109.568C48.48 110.912 44.736 111.776 40.896 112.16C36.96 112.352 33.12 111.728 29.376 110.288C25.632 108.944 22.128 106.88 18.864 104.096C15.696 101.312 12.864 98 10.368 94.16C7.872 90.32 5.856 85.856 4.32 80.768C2.88 75.68 2.064 70.304 1.872 64.64C1.68 59.648 1.968 54.56 2.736 49.376C3.6 44.096 4.992 38.912 6.912 33.824C8.928 28.64 11.376 24.08 14.256 20.144C17.136 16.208 20.736 13.04 25.056 10.64C29.472 8.144 34.32 6.944 39.6 7.04C44.304 7.13599 48.816 8.33599 53.136 10.64C57.552 12.944 61.488 16.256 64.944 20.576C68.496 24.896 71.232 30.56 73.152 37.568C75.168 44.576 76.08 52.448 75.888 61.184C75.888 73.28 73.296 84.08 68.112 93.584L77.616 103.952L58.608 122.528ZM85.5045 18.992L107.105 20.144C106.817 23.12 106.481 26.336 106.097 29.792C105.809 33.248 105.473 37.808 105.089 43.472C104.705 49.136 104.561 54.416 104.657 59.312C104.849 64.208 105.233 68.96 105.809 73.568C106.385 78.08 107.441 81.68 108.977 84.368C110.609 87.056 112.625 88.352 115.025 88.256C117.617 88.16 119.777 86.768 121.505 84.08C123.233 81.392 124.385 77.792 124.961 73.28C125.537 68.768 125.921 64.112 126.113 59.312C126.305 54.416 126.161 49.28 125.681 43.904C125.297 38.432 124.913 33.92 124.529 30.368C124.145 26.816 123.713 23.552 123.233 20.576L145.409 19.424C145.409 20.288 145.505 21.632 145.697 23.456C146.369 29.408 146.849 34.16 147.137 37.712C147.425 41.264 147.665 46.448 147.857 53.264C148.049 60.08 147.905 65.696 147.425 70.112C146.945 74.528 146.033 79.52 144.689 85.088C143.441 90.656 141.617 95.072 139.217 98.336C136.913 101.6 133.745 104.432 129.713 106.832C125.777 109.136 121.169 110.288 115.889 110.288C110.129 110.384 105.089 109.28 100.769 106.976C96.5445 104.576 93.1845 101.648 90.6885 98.192C88.2885 94.736 86.4165 90.08 85.0725 84.224C83.8245 78.368 83.0085 73.136 82.6245 68.528C82.2405 63.824 82.1925 57.92 82.4805 50.816C82.8645 43.712 83.2485 38.384 83.6325 34.832C84.0165 31.184 84.5925 26.384 85.3605 20.432C85.4565 19.76 85.5045 19.28 85.5045 18.992ZM156.215 20.144L205.319 17.84L206.183 39.44H179.831L178.535 54.848L195.527 55.568L195.095 73.712L178.535 73.28L178.247 88.688L207.767 89.408L208.055 110.72L155.783 109.136L156.215 20.144ZM214.997 20.144L264.101 17.84L264.965 39.44H238.613L237.317 54.848L254.309 55.568L253.877 73.712L237.317 73.28L237.029 88.688L266.549 89.408L266.837 110.72L214.564 109.136L214.997 20.144ZM271.618 19.856L331.09 18.992L331.522 44.192L301.138 87.968L330.226 86.672V110.288L271.33 110L270.466 89.84L309.058 39.872H271.618V19.856ZM355.005 72.128L332.973 19.424L359.037 18.992L366.813 54.128H367.965L375.885 18.992L402.669 19.856L377.469 72.56L378.621 110H354.573L355.005 72.128Z" fill="url(#paint1_linear_9_2)"/>
<path d="M37.872 31.664L37.1924 27.7222L37.0979 27.7384L37.0043 27.7592L37.872 31.664ZM31.392 41.6L27.5459 40.5011L27.5378 40.5294L27.5301 40.5579L31.392 41.6ZM28.8 61.184L32.7996 61.2395L32.7996 61.2388L28.8 61.184ZM31.248 80.192L27.4167 81.3414L27.4254 81.3705L27.4346 81.3996L31.248 80.192ZM42.048 87.968L43.8369 91.5457L47.4397 89.7443L45.6131 86.1542L42.048 87.968ZM37.872 79.76L34.9786 76.9981L33.0218 79.048L34.3069 81.5738L37.872 79.76ZM46.944 70.256L49.7724 67.4276L46.8775 64.5326L44.0506 67.4941L46.944 70.256ZM48.672 71.984L45.8436 74.8124L51.7414 80.7103L52.6483 72.4189L48.672 71.984ZM48.96 53.552L44.9676 53.7977L44.9696 53.8306L44.9722 53.8635L48.96 53.552ZM45.216 37.568L41.6075 39.2938L41.6075 39.2938L45.216 37.568ZM58.608 122.528L55.0303 124.317L57.4824 129.221L61.4037 125.389L58.608 122.528ZM52.128 109.568L55.7057 107.779L54.1046 104.577L50.7452 105.815L52.128 109.568ZM40.896 112.16L41.0909 116.155L41.1926 116.15L41.294 116.14L40.896 112.16ZM29.376 110.288L30.8119 106.555L30.7699 106.538L30.7275 106.523L29.376 110.288ZM18.864 104.096L16.2235 107.101L16.2457 107.12L16.2682 107.139L18.864 104.096ZM10.368 94.16L13.7218 91.98L13.7218 91.98L10.368 94.16ZM4.32 80.768L0.471176 81.8573L0.480643 81.8907L0.490689 81.924L4.32 80.768ZM1.872 64.64L5.8697 64.5045L5.8694 64.4954L5.86904 64.4863L1.872 64.64ZM2.736 49.376L-1.2115 48.73L-1.21638 48.7599L-1.22081 48.7898L2.736 49.376ZM6.912 33.824L3.18398 32.3742L3.17669 32.393L3.16959 32.4118L6.912 33.824ZM25.056 10.64L26.9986 14.1366L27.0114 14.1295L27.0242 14.1222L25.056 10.64ZM39.6 7.04L39.6816 3.04082L39.6727 3.04066L39.6 7.04ZM53.136 10.64L51.2537 14.1694L51.2697 14.1779L51.2857 14.1863L53.136 10.64ZM64.944 20.576L61.8205 23.0748L61.8373 23.0957L61.8543 23.1164L64.944 20.576ZM73.152 37.568L69.2942 38.6249L69.3009 38.6494L69.3079 38.6738L73.152 37.568ZM75.888 61.184L71.889 61.0961L71.888 61.14V61.184H75.888ZM68.112 93.584L64.6004 91.6686L63.2311 94.179L65.1634 96.2869L68.112 93.584ZM77.616 103.952L80.4117 106.813L83.1825 104.105L80.5646 101.249L77.616 103.952ZM37.0043 27.7592C34.2828 28.364 32.3327 30.2864 30.9576 32.3949C29.5691 34.5238 28.4631 37.291 27.5459 40.5011L35.2381 42.6989C36.0489 39.861 36.8869 37.9482 37.6584 36.7651C38.4433 35.5616 38.8692 35.54 38.7397 35.5687L37.0043 27.7592ZM27.5301 40.5579C25.8016 46.9635 24.9004 53.8266 24.8004 61.1292L32.7996 61.2388C32.8916 54.5254 33.7184 48.3325 35.2539 42.6421L27.5301 40.5579ZM24.8004 61.1284C24.6996 68.3886 25.5555 75.1373 27.4167 81.3414L35.0793 79.0426C33.4845 73.7267 32.7085 67.8034 32.7996 61.2395L24.8004 61.1284ZM27.4346 81.3996C29.3423 87.4239 32.8498 92.832 39.168 92.832V84.832C38.5742 84.832 36.8017 84.4801 35.0614 78.9844L27.4346 81.3996ZM39.168 92.832C40.8423 92.832 42.4585 92.2349 43.8369 91.5457L40.2591 84.3903C39.8339 84.6029 39.5228 84.7222 39.3146 84.7847C39.1006 84.8489 39.0649 84.832 39.168 84.832V92.832ZM45.6131 86.1542L41.4371 77.9462L34.3069 81.5738L38.4829 89.7818L45.6131 86.1542ZM40.7654 82.5219L49.8374 73.0179L44.0506 67.4941L34.9786 76.9981L40.7654 82.5219ZM44.1156 73.0844L45.8436 74.8124L51.5004 69.1556L49.7724 67.4276L44.1156 73.0844ZM52.6483 72.4189C53.3473 66.0277 53.4473 59.6338 52.9478 53.2404L44.9722 53.8635C45.4327 59.7582 45.3407 65.6523 44.6957 71.5491L52.6483 72.4189ZM52.9524 53.3063C52.5452 46.6892 51.2107 40.8314 48.8245 35.8422L41.6075 39.2938C43.4453 43.1366 44.6068 47.9348 44.9676 53.7977L52.9524 53.3063ZM48.8245 35.8422C47.6399 33.3651 46.1817 31.1735 44.3022 29.6625C42.2955 28.0493 39.8495 27.264 37.1924 27.7222L38.5516 35.6058C38.6785 35.584 38.8485 35.5427 39.2898 35.8975C39.8583 36.3545 40.6802 37.3549 41.6075 39.2938L48.8245 35.8422ZM62.1857 120.739L55.7057 107.779L48.5503 111.357L55.0303 124.317L62.1857 120.739ZM50.7452 105.815C47.4122 107.043 43.9989 107.83 40.498 108.18L41.294 116.14C45.4731 115.722 49.5478 114.781 53.5108 113.321L50.7452 105.815ZM40.7011 108.165C37.3312 108.329 34.046 107.799 30.8119 106.555L27.9401 114.021C32.194 115.657 36.5888 116.375 41.0909 116.155L40.7011 108.165ZM30.7275 106.523C27.473 105.355 24.385 103.548 21.4598 101.053L16.2682 107.139C19.871 110.212 23.791 112.533 28.0245 114.053L30.7275 106.523ZM21.5045 101.091C18.6332 98.5681 16.0357 95.54 13.7218 91.98L7.01423 96.34C9.69226 100.46 12.7588 104.056 16.2235 107.101L21.5045 101.091ZM13.7218 91.98C11.4618 88.5032 9.5931 84.3945 8.14931 79.612L0.490689 81.924C2.1189 87.3175 4.28218 92.1368 7.01423 96.34L13.7218 91.98ZM8.16882 79.6787C6.82282 74.9228 6.05154 69.8687 5.8697 64.5045L-2.1257 64.7755C-1.92354 70.7393 -1.06282 76.4372 0.471176 81.8573L8.16882 79.6787ZM5.86904 64.4863C5.68701 59.7534 5.95932 54.9133 6.69281 49.9622L-1.22081 48.7898C-2.02332 54.2067 -2.32701 59.5426 -2.12504 64.7937L5.86904 64.4863ZM6.6835 50.0219C7.50399 45.0078 8.82645 40.0803 10.6544 35.2362L3.16959 32.4118C1.15755 37.7437 -0.303992 43.1842 -1.2115 48.73L6.6835 50.0219ZM10.64 35.2738C12.5471 30.3698 14.8362 26.1249 17.4841 22.506L11.0279 17.782C7.91581 22.0351 5.30887 26.9102 3.18398 32.3742L10.64 35.2738ZM17.4841 22.506C20.018 19.0431 23.1771 16.2596 26.9986 14.1366L23.1134 7.14336C18.2949 9.82034 14.254 13.3729 11.0279 17.782L17.4841 22.506ZM27.0242 14.1222C30.7922 11.9926 34.9309 10.9558 39.5273 11.0393L39.6727 3.04066C33.7091 2.93223 28.1519 4.29544 23.0878 7.15774L27.0242 14.1222ZM39.5184 11.0392C43.5677 11.1218 47.4654 12.149 51.2537 14.1694L55.0184 7.11058C50.1666 4.523 45.0403 3.15019 39.6816 3.04083L39.5184 11.0392ZM51.2857 14.1863C55.1572 16.2062 58.673 19.1403 61.8205 23.0748L68.0675 18.0772C64.303 13.3716 59.9468 9.68176 54.9863 7.09365L51.2857 14.1863ZM61.8543 23.1164C64.9588 26.8921 67.4803 32.0044 69.2942 38.6249L77.0098 36.5111C74.9837 29.1156 72.0333 22.8999 68.0337 18.0356L61.8543 23.1164ZM69.3079 38.6738C71.1928 45.2261 72.0738 52.6862 71.889 61.0961L79.887 61.2719C80.0862 52.2098 79.1432 43.9259 76.9961 36.4622L69.3079 38.6738ZM71.888 61.184C71.888 72.6906 69.4277 82.8185 64.6004 91.6686L71.6236 95.4994C77.1643 85.3415 79.888 73.8694 79.888 61.184H71.888ZM65.1634 96.2869L74.6674 106.655L80.5646 101.249L71.0606 90.8811L65.1634 96.2869ZM74.8203 101.091L55.8123 119.667L61.4037 125.389L80.4117 106.813L74.8203 101.091ZM85.5045 18.992L85.7175 14.9977L81.5045 14.773V18.992H85.5045ZM107.105 20.144L111.086 20.5293L111.488 16.3721L107.318 16.1497L107.105 20.144ZM106.097 29.792L102.121 29.3503L102.115 29.405L102.11 29.4598L106.097 29.792ZM105.089 43.472L101.098 43.2014L101.098 43.2014L105.089 43.472ZM104.657 59.312L100.657 59.3904L100.658 59.4296L100.66 59.4687L104.657 59.312ZM105.809 73.568L101.839 74.0641L101.841 74.0745L105.809 73.568ZM108.977 84.368L105.504 86.3526L105.53 86.3986L105.557 86.4439L108.977 84.368ZM115.025 88.256L114.876 84.2587L114.865 84.2592L115.025 88.256ZM124.961 73.28L120.993 72.7735L120.993 72.7735L124.961 73.28ZM126.113 59.312L130.109 59.4719L130.109 59.4687L126.113 59.312ZM125.681 43.904L121.69 44.184L121.693 44.2219L121.696 44.2597L125.681 43.904ZM123.233 20.576L123.025 16.5814L118.574 16.8126L119.284 21.2129L123.233 20.576ZM145.409 19.424H149.409V15.2108L145.201 15.4294L145.409 19.424ZM145.697 23.456L141.718 23.8747L141.72 23.8898L141.722 23.9048L145.697 23.456ZM147.137 37.712L143.15 38.0353L143.15 38.0353L147.137 37.712ZM147.857 53.264L143.858 53.3766L143.858 53.3766L147.857 53.264ZM144.689 85.088L140.8 84.1494L140.792 84.1812L140.785 84.2132L144.689 85.088ZM139.217 98.336L135.994 95.9664L135.971 95.9976L135.949 96.0293L139.217 98.336ZM129.713 106.832L131.733 110.284L131.746 110.277L131.758 110.269L129.713 106.832ZM115.889 110.288V106.288H115.855L115.822 106.289L115.889 110.288ZM100.769 106.976L98.7925 110.454L98.839 110.48L98.8861 110.505L100.769 106.976ZM90.6885 98.192L87.403 100.474L87.4241 100.504L87.4458 100.534L90.6885 98.192ZM85.0725 84.224L81.1604 85.0577L81.1669 85.0883L81.1739 85.1188L85.0725 84.224ZM82.6245 68.528L78.6378 68.8534L78.6383 68.8602L82.6245 68.528ZM82.4805 50.816L78.4863 50.6001L78.4849 50.627L78.4838 50.654L82.4805 50.816ZM83.6325 34.832L87.6093 35.2619L87.6105 35.2507L83.6325 34.832ZM85.3605 20.432L81.4007 19.8663L81.3969 19.8932L81.3934 19.9201L85.3605 20.432ZM85.2915 22.9863L106.891 24.1383L107.318 16.1497L85.7175 14.9977L85.2915 22.9863ZM103.123 19.7587C102.837 22.7131 102.503 25.9101 102.121 29.3503L110.072 30.2337C110.458 26.7619 110.796 23.5268 111.086 20.5293L103.123 19.7587ZM102.11 29.4598C101.82 32.9451 101.482 37.528 101.098 43.2014L109.079 43.7426C109.463 38.088 109.797 33.5509 110.083 30.1242L102.11 29.4598ZM101.098 43.2014C100.707 48.9638 100.559 54.3615 100.657 59.3904L108.656 59.2336C108.562 54.4705 108.702 49.3082 109.079 43.7426L101.098 43.2014ZM100.66 59.4687C100.856 64.472 101.249 69.3375 101.839 74.0641L109.778 73.0719C109.216 68.5825 108.841 63.944 108.653 59.1553L100.66 59.4687ZM101.841 74.0745C102.455 78.8841 103.615 83.0479 105.504 86.3526L112.449 82.3834C111.266 80.3121 110.314 77.2759 109.776 73.0615L101.841 74.0745ZM105.557 86.4439C107.675 89.9312 110.877 92.4251 115.184 92.2528L114.865 84.2592C114.372 84.2789 113.542 84.1808 112.396 82.2921L105.557 86.4439ZM115.173 92.2533C119.381 92.0974 122.619 89.7433 124.869 86.243L118.14 81.917C116.934 83.7927 115.852 84.2226 114.876 84.2587L115.173 92.2533ZM124.869 86.243C127.025 82.889 128.307 78.6561 128.928 73.7865L120.993 72.7735C120.462 76.9279 119.44 79.895 118.14 81.917L124.869 86.243ZM128.928 73.7865C129.52 69.1532 129.913 64.3814 130.109 59.4719L122.116 59.1521C121.928 63.8426 121.553 68.3827 120.993 72.7735L128.928 73.7865ZM130.109 59.4687C130.309 54.3856 130.158 49.0777 129.665 43.5483L121.696 44.2597C122.163 49.4823 122.3 54.4463 122.116 59.1553L130.109 59.4687ZM129.671 43.624C129.285 38.1253 128.897 33.5588 128.505 29.9381L120.552 30.7979C120.928 34.2812 121.308 38.7387 121.69 44.184L129.671 43.624ZM128.505 29.9381C128.115 26.3291 127.674 22.995 127.181 19.9391L119.284 21.2129C119.751 24.109 120.174 27.3029 120.552 30.7979L128.505 29.9381ZM123.44 24.5706L145.616 23.4186L145.201 15.4294L123.025 16.5814L123.44 24.5706ZM141.409 19.424C141.409 20.5105 141.524 22.0299 141.718 23.8747L149.675 23.0373C149.485 21.2341 149.409 20.0655 149.409 19.424H141.409ZM141.722 23.9048C142.392 29.8389 142.866 34.5437 143.15 38.0353L151.123 37.3887C150.831 33.7763 150.345 28.9771 149.671 23.0072L141.722 23.9048ZM143.15 38.0353C143.429 41.4801 143.667 46.5799 143.858 53.3766L151.855 53.1514C151.662 46.3161 151.42 41.0479 151.123 37.3887L143.15 38.0353ZM143.858 53.3766C144.047 60.0959 143.901 65.5132 143.448 69.6798L151.401 70.5442C151.908 65.8788 152.05 60.0641 151.855 53.1514L143.858 53.3766ZM143.448 69.6798C142.991 73.8848 142.115 78.7032 140.8 84.1494L148.577 86.0266C149.95 80.3368 150.898 75.1712 151.401 70.5442L143.448 69.6798ZM140.785 84.2132C139.612 89.4463 137.961 93.2911 135.994 95.9664L142.439 100.706C145.272 96.8529 147.269 91.8657 148.592 85.9628L140.785 84.2132ZM135.949 96.0293C134.02 98.762 131.3 101.232 127.667 103.395L131.758 110.269C136.189 107.632 139.805 104.438 142.484 100.643L135.949 96.0293ZM127.692 103.38C124.46 105.272 120.572 106.288 115.889 106.288V114.288C121.765 114.288 127.093 113 131.733 110.284L127.692 103.38ZM115.822 106.289C110.62 106.375 106.274 105.379 102.651 103.447L98.8861 110.505C103.903 113.181 109.637 114.393 115.955 114.287L115.822 106.289ZM102.745 103.498C98.9498 101.342 96.0474 98.7802 93.9312 95.85L87.4458 100.534C90.3216 104.516 94.1393 107.81 98.7925 110.454L102.745 103.498ZM93.974 95.9104C91.961 93.0117 90.246 88.884 88.9711 83.3292L81.1739 85.1188C82.587 91.276 84.616 96.4603 87.403 100.474L93.974 95.9104ZM88.9846 83.3903C87.7622 77.6543 86.9772 72.5946 86.6107 68.1958L78.6383 68.8602C79.0398 73.6774 79.8868 79.0817 81.1604 85.0577L88.9846 83.3903ZM86.6112 68.2025C86.2453 63.7198 86.1929 57.992 86.4772 50.978L78.4838 50.654C78.1921 57.848 78.2357 63.9282 78.6378 68.8534L86.6112 68.2025ZM86.4747 51.0319C86.8578 43.9441 87.2373 38.7034 87.6093 35.2619L79.6557 34.4021C79.2597 38.0646 78.8712 43.4799 78.4863 50.6001L86.4747 51.0319ZM87.6105 35.2507C87.9899 31.647 88.5614 26.8816 89.3276 20.9439L81.3934 19.9201C80.6236 25.8863 80.0431 30.721 79.6545 34.4133L87.6105 35.2507ZM89.3203 20.9977C89.417 20.321 89.5045 19.5918 89.5045 18.992H81.5045C81.5045 18.9444 81.5067 18.9869 81.4884 19.17C81.4717 19.3366 81.4437 19.5656 81.4007 19.8663L89.3203 20.9977ZM156.215 20.144L156.028 16.1484L152.234 16.3264L152.215 20.1246L156.215 20.144ZM205.319 17.84L209.316 17.6801L209.155 13.6556L205.132 13.8444L205.319 17.84ZM206.183 39.44V43.44H210.346L210.18 39.2801L206.183 39.44ZM179.831 39.44V35.44H176.154L175.845 39.1047L179.831 39.44ZM178.535 54.848L174.549 54.5127L174.2 58.6679L178.366 58.8444L178.535 54.848ZM195.527 55.568L199.526 55.6632L199.62 51.7378L195.697 51.5716L195.527 55.568ZM195.095 73.712L194.991 77.7106L198.999 77.8152L199.094 73.8072L195.095 73.712ZM178.535 73.28L178.64 69.2814L174.611 69.1763L174.536 73.2052L178.535 73.28ZM178.247 88.688L174.248 88.6132L174.174 92.5898L178.15 92.6868L178.247 88.688ZM207.767 89.408L211.767 89.3539L211.715 85.5031L207.865 85.4092L207.767 89.408ZM208.055 110.72L207.934 114.718L212.111 114.845L212.055 110.666L208.055 110.72ZM155.783 109.136L151.783 109.117L151.764 113.016L155.662 113.134L155.783 109.136ZM156.403 24.1396L205.507 21.8356L205.132 13.8444L156.028 16.1484L156.403 24.1396ZM201.322 17.9999L202.186 39.5999L210.18 39.2801L209.316 17.6801L201.322 17.9999ZM206.183 35.44H179.831V43.44H206.183V35.44ZM175.845 39.1047L174.549 54.5127L182.521 55.1833L183.817 39.7753L175.845 39.1047ZM178.366 58.8444L195.358 59.5644L195.697 51.5716L178.705 50.8516L178.366 58.8444ZM191.528 55.4728L191.096 73.6168L199.094 73.8072L199.526 55.6632L191.528 55.4728ZM195.2 69.7134L178.64 69.2814L178.431 77.2786L194.991 77.7106L195.2 69.7134ZM174.536 73.2052L174.248 88.6132L182.247 88.7628L182.535 73.3547L174.536 73.2052ZM178.15 92.6868L207.67 93.4068L207.865 85.4092L178.345 84.6892L178.15 92.6868ZM203.768 89.462L204.056 110.774L212.055 110.666L211.767 89.3539L203.768 89.462ZM208.176 106.722L155.904 105.138L155.662 113.134L207.934 114.718L208.176 106.722ZM159.783 109.155L160.215 20.1634L152.215 20.1246L151.783 109.117L159.783 109.155ZM214.997 20.144L214.809 16.1484L211.015 16.3264L210.997 20.1246L214.997 20.144ZM264.101 17.84L268.097 17.6801L267.936 13.6556L263.913 13.8444L264.101 17.84ZM264.965 39.44V43.44H269.128L268.961 39.2801L264.965 39.44ZM238.613 39.44V35.44H234.935L234.627 39.1047L238.613 39.44ZM237.317 54.848L233.331 54.5127L232.981 58.6679L237.147 58.8444L237.317 54.848ZM254.309 55.568L258.307 55.6632L258.401 51.7378L254.478 51.5716L254.309 55.568ZM253.877 73.712L253.772 77.7106L257.78 77.8152L257.875 73.8072L253.877 73.712ZM237.317 73.28L237.421 69.2814L233.393 69.1763L233.317 73.2052L237.317 73.28ZM237.029 88.688L233.029 88.6132L232.955 92.5898L236.931 92.6868L237.029 88.688ZM266.549 89.408L270.548 89.3539L270.496 85.5031L266.646 85.4092L266.549 89.408ZM266.837 110.72L266.715 114.718L270.893 114.845L270.836 110.666L266.837 110.72ZM214.564 109.136L210.565 109.117L210.546 113.016L214.443 113.134L214.564 109.136ZM215.184 24.1396L264.288 21.8356L263.913 13.8444L214.809 16.1484L215.184 24.1396ZM260.104 17.9999L260.968 39.5999L268.961 39.2801L268.097 17.6801L260.104 17.9999ZM264.965 35.44H238.613V43.44H264.965V35.44ZM234.627 39.1047L233.331 54.5127L241.302 55.1833L242.598 39.7753L234.627 39.1047ZM237.147 58.8444L254.139 59.5644L254.478 51.5716L237.486 50.8516L237.147 58.8444ZM250.31 55.4728L249.878 73.6168L257.875 73.8072L258.307 55.6632L250.31 55.4728ZM253.981 69.7134L237.421 69.2814L237.212 77.2786L253.772 77.7106L253.981 69.7134ZM233.317 73.2052L233.029 88.6132L241.028 88.7628L241.316 73.3547L233.317 73.2052ZM236.931 92.6868L266.451 93.4068L266.646 85.4092L237.126 84.6892L236.931 92.6868ZM262.549 89.462L262.837 110.774L270.836 110.666L270.548 89.3539L262.549 89.462ZM266.958 106.722L214.686 105.138L214.443 113.134L266.715 114.718L266.958 106.722ZM218.564 109.155L218.996 20.1634L210.997 20.1246L210.565 109.117L218.564 109.155ZM271.618 19.856L271.56 15.8564L267.618 15.9137V19.856H271.618ZM331.09 18.992L335.089 18.9234L335.021 14.9345L331.032 14.9924L331.09 18.992ZM331.522 44.192L334.808 46.4728L335.543 45.4131L335.521 44.1234L331.522 44.192ZM301.138 87.968L297.852 85.6872L293.246 92.3236L301.316 91.964L301.138 87.968ZM330.226 86.672H334.226V82.4898L330.048 82.676L330.226 86.672ZM330.226 110.288L330.206 114.288L334.226 114.308V110.288H330.226ZM271.33 110L267.333 110.171L267.497 113.981L271.31 114L271.33 110ZM270.466 89.84L267.3 87.395L266.407 88.5514L266.469 90.0113L270.466 89.84ZM309.058 39.872L312.223 42.317L317.201 35.872H309.058V39.872ZM271.618 39.872H267.618V43.872H271.618V39.872ZM271.676 23.8556L331.148 22.9916L331.032 14.9924L271.56 15.8564L271.676 23.8556ZM327.09 19.0606L327.522 44.2606L335.521 44.1234L335.089 18.9234L327.09 19.0606ZM328.236 41.9112L297.852 85.6872L304.424 90.2488L334.808 46.4728L328.236 41.9112ZM301.316 91.964L330.404 90.668L330.048 82.676L300.96 83.972L301.316 91.964ZM326.226 86.672V110.288H334.226V86.672H326.226ZM330.245 106.288L271.349 106L271.31 114L330.206 114.288L330.245 106.288ZM275.326 109.829L274.462 89.6687L266.469 90.0113L267.333 110.171L275.326 109.829ZM273.631 92.285L312.223 42.317L305.892 37.427L267.3 87.395L273.631 92.285ZM309.058 35.872H271.618V43.872H309.058V35.872ZM275.618 39.872V19.856H267.618V39.872H275.618ZM355.005 72.128L359.005 72.1736L359.014 71.3475L358.696 70.5852L355.005 72.128ZM332.973 19.424L332.907 15.4245L327.007 15.5223L329.282 20.9668L332.973 19.424ZM359.037 18.992L362.943 18.1277L362.237 14.9384L358.971 14.9925L359.037 18.992ZM366.813 54.128L362.908 54.9923L363.601 58.128H366.813V54.128ZM367.965 54.128V58.128H371.164L371.867 55.0076L367.965 54.128ZM375.885 18.992L376.014 14.9941L372.71 14.8875L371.983 18.1124L375.885 18.992ZM402.669 19.856L406.278 21.5815L408.92 16.0556L402.798 15.8581L402.669 19.856ZM377.469 72.56L373.86 70.8345L373.441 71.7115L373.471 72.683L377.469 72.56ZM378.621 110V114H382.746L382.619 109.877L378.621 110ZM354.573 110L350.573 109.954L350.527 114H354.573V110ZM358.696 70.5852L336.664 17.8812L329.282 20.9668L351.314 73.6708L358.696 70.5852ZM333.039 23.4234L359.103 22.9914L358.971 14.9925L332.907 15.4245L333.039 23.4234ZM355.132 19.8563L362.908 54.9923L370.719 53.2637L362.943 18.1277L355.132 19.8563ZM366.813 58.128H367.965V50.128H366.813V58.128ZM371.867 55.0076L379.787 19.8716L371.983 18.1124L364.063 53.2484L371.867 55.0076ZM375.756 22.9899L402.54 23.8539L402.798 15.8581L376.014 14.9941L375.756 22.9899ZM399.06 18.1305L373.86 70.8345L381.078 74.2855L406.278 21.5815L399.06 18.1305ZM373.471 72.683L374.623 110.123L382.619 109.877L381.467 72.437L373.471 72.683ZM378.621 106H354.573V114H378.621V106ZM358.573 110.046L359.005 72.1736L351.005 72.0824L350.573 109.954L358.573 110.046Z" fill="#A7462A"/>
<defs>
<linearGradient id="paint0_linear_9_2" x1="201" y1="0" x2="201" y2="139" gradientUnits="userSpaceOnUse">
<stop stop-color="#F5B988"/>
<stop offset="0.40625" stop-color="#EC895D"/>
<stop offset="0.5" stop-color="#E55F37"/>
</linearGradient>
<linearGradient id="paint1_linear_9_2" x1="201" y1="0" x2="201" y2="139" gradientUnits="userSpaceOnUse">
<stop stop-color="#F5B988"/>
<stop offset="0.40625" stop-color="#EC895D"/>
<stop offset="0.5" stop-color="#E55F37"/>
</linearGradient>
</defs>
</svg>
